<svg xmlns="http://www.w3.org/2000/svg" xmlns:xlink="http://www.w3.org/1999/xlink" version="1.1" width="256" height="256" viewBox="0 0 256 256" xml:space="preserve">

<defs>
</defs>
<g style="stroke: none; stroke-width: 0; stroke-dasharray: none; stroke-linecap: butt; stroke-linejoin: miter; stroke-miterlimit: 10; fill: none; fill-rule: nonzero; opacity: 1;" transform="translate(1.4065934065934016 1.4065934065934016) scale(2.81 2.81)" >
	<path d="M 37.388 65.597 L 45 57.985 h 14.328 l 8.955 -8.955 V 20.373 H 25.299 v 37.612 h 12.09 V 65.597 z M 53.955 30.672 h 5.373 v 15.655 h -5.373 V 30.672 z M 39.627 30.672 H 45 v 15.655 h -5.373 V 30.672 z" style="stroke: none; stroke-width: 1; stroke-dasharray: none; stroke-linecap: butt; stroke-linejoin: miter; stroke-miterlimit: 10; fill: rgb(97,59,162); fill-rule: nonzero; opacity: 1;" transform=" matrix(1 0 0 1 0 0) " stroke-linecap="round" />
	<path d="M 0 0 v 90 h 90 V 0 H 0 z M 73.657 51.716 L 57.985 67.388 H 46.343 L 38.731 75 h -8.06 v -7.612 H 16.343 V 25.299 L 20.373 15 h 53.284 V 51.716 z" style="stroke: none; stroke-width: 1; stroke-dasharray: none; stroke-linecap: butt; stroke-linejoin: miter; stroke-miterlimit: 10; fill: rgb(97,59,162); fill-rule: nonzero; opacity: 1;" transform=" matrix(1 0 0 1 0 0) " stroke-linecap="round" />
</g>
</svg>